<svg width="187" height="20" viewBox="0 0 187 20" fill="none" xmlns="http://www.w3.org/2000/svg">
<path d="M177.958 0C180.422 0 182.447 0.505618 184.033 1.51685C185.619 2.50936 186.431 3.98876 186.469 5.95506V6.29214H180.674V6.17978C180.674 5.61798 180.468 5.14981 180.058 4.77528C179.647 4.40075 179.022 4.21348 178.182 4.21348C177.361 4.21348 176.726 4.33521 176.279 4.57865C175.849 4.8221 175.635 5.12172 175.635 5.47753C175.635 5.98315 175.933 6.35768 176.531 6.60112C177.128 6.84457 178.089 7.09738 179.414 7.35955C180.963 7.6779 182.232 8.01498 183.221 8.37079C184.229 8.70787 185.106 9.26966 185.853 10.0562C186.599 10.8427 186.982 11.9101 187 13.2584C187 15.5431 186.226 17.2378 184.677 18.3427C183.147 19.4476 181.094 20 178.518 20C175.513 20 173.171 19.4944 171.492 18.4831C169.831 17.4719 169 15.6835 169 13.118H174.851C174.851 14.0918 175.103 14.7472 175.607 15.0843C176.111 15.4026 176.894 15.5618 177.958 15.5618C178.742 15.5618 179.386 15.4775 179.89 15.309C180.412 15.1405 180.674 14.794 180.674 14.2697C180.674 13.8015 180.384 13.4551 179.806 13.2303C179.246 12.9869 178.322 12.7341 177.034 12.4719C175.467 12.1348 174.17 11.7884 173.143 11.4326C172.117 11.0581 171.221 10.4494 170.456 9.60674C169.691 8.76405 169.308 7.62172 169.308 6.17978C169.308 4.06367 170.12 2.50936 171.743 1.51685C173.386 0.505618 175.457 0 177.958 0Z" fill="#FB542F"/>
<path d="M160.75 5.28025V19.6623H154.564V5.28025H148.237V0.336426H167.049V5.28025H160.75Z" fill="#FB542F"/>
<path d="M146.402 6.26339C146.402 7.44317 146.085 8.51058 145.451 9.46564C144.816 10.4207 143.892 11.1229 142.679 11.5724L146.962 19.6623H140.02L136.604 12.6117H134.309V19.6623H128.122V0.336426H139.908C141.289 0.336426 142.465 0.607961 143.435 1.15103C144.424 1.67538 145.161 2.39635 145.647 3.31395C146.15 4.21283 146.402 5.19597 146.402 6.26339ZM140.104 6.5162C140.104 6.01058 139.936 5.58923 139.6 5.25216C139.264 4.91508 138.853 4.74654 138.368 4.74654H134.309V8.31395H138.368C138.853 8.31395 139.264 8.14541 139.6 7.80834C139.936 7.45253 140.104 7.02182 140.104 6.5162Z" fill="#FB542F"/>
<path d="M119.239 19.6623L118.427 16.9375H111.68L110.868 19.6623H104.542L111.568 0.336426H118.763L125.789 19.6623H119.239ZM112.968 12.6117H117.139L115.123 5.72968H115.011L112.968 12.6117Z" fill="#FB542F"/>
<path d="M99.3146 0.336426C100.509 0.336426 101.573 0.617324 102.506 1.17912C103.439 1.72219 104.167 2.48062 104.69 3.4544C105.212 4.40946 105.473 5.48624 105.473 6.68474V7.04991C105.473 8.24841 105.212 9.33455 104.69 10.3083C104.167 11.2821 103.439 12.0499 102.506 12.6117C101.573 13.1548 100.509 13.4263 99.3146 13.4263H94.6956V19.6623H88.5088V0.336426H99.3146ZM94.6956 8.90384H97.243C97.8962 8.90384 98.3815 8.7353 98.6988 8.39822C99.0347 8.06114 99.2027 7.60234 99.2027 7.02182V6.7971C99.2027 6.19785 99.0347 5.73905 98.6988 5.42069C98.3815 5.08362 97.8962 4.91508 97.243 4.91508H94.6956V8.90384Z" fill="#FB542F"/>
<path d="M74.7629 0C78.0849 0 80.651 0.85206 82.4613 2.55618C84.2716 4.2603 85.1768 6.74157 85.1768 10C85.1768 13.2584 84.2716 15.7397 82.4613 17.4438C80.651 19.1479 78.0849 20 74.7629 20C71.4409 20 68.8747 19.1573 67.0644 17.4719C65.2728 15.7678 64.377 13.2772 64.377 10C64.377 6.72285 65.2728 4.24157 67.0644 2.55618C68.8747 0.85206 71.4409 0 74.7629 0ZM74.7629 4.63483C73.4378 4.63483 72.43 5.03745 71.7395 5.8427C71.049 6.64794 70.7037 7.73408 70.7037 9.10112V10.8989C70.7037 12.2659 71.049 13.3521 71.7395 14.1573C72.43 14.9625 73.4378 15.3652 74.7629 15.3652C76.0879 15.3652 77.0957 14.9625 77.7863 14.1573C78.4955 13.3521 78.8501 12.2659 78.8501 10.8989V9.10112C78.8501 7.73408 78.4955 6.64794 77.7863 5.8427C77.0957 5.03745 76.0879 4.63483 74.7629 4.63483Z" fill="#083C7E"/>
<path d="M57.0286 5.28025V19.6623H50.8419V5.28025H44.5151V0.336426H63.3274V5.28025H57.0286Z" fill="#083C7E"/>
<path d="M41.7997 11.8814C41.7997 14.5218 40.9692 16.5349 39.3082 17.9207C37.6472 19.3065 35.2863 19.9993 32.2256 19.9993C29.1649 19.9993 26.7947 19.3065 25.115 17.9207C23.454 16.5349 22.6235 14.5218 22.6235 11.8814V0.336426H28.8103V11.7971C28.8103 12.8832 29.0996 13.754 29.6781 14.4095C30.2567 15.0462 31.0965 15.3645 32.1976 15.3645C33.2987 15.3645 34.1386 15.0368 34.7171 14.3814C35.3143 13.7259 35.6129 12.8645 35.6129 11.7971V0.336426H41.7997V11.8814Z" fill="#083C7E"/>
<path d="M14.6971 19.6623L13.8852 16.9375H7.13857L6.32674 19.6623H0L7.0266 0.336426H14.2212L21.2478 19.6623H14.6971ZM8.42632 12.6117H12.5975L10.5819 5.72968H10.4699L8.42632 12.6117Z" fill="#083C7E"/>
</svg>
