<svg width="187" height="20" viewBox="0 0 187 20" fill="none" xmlns="http://www.w3.org/2000/svg">
<path d="M177.958 0C180.422 0 182.447 0.505618 184.033 1.51685C185.619 2.50936 186.431 3.98876 186.469 5.95506V6.29214H180.674V6.17978C180.674 5.61798 180.468 5.14981 180.058 4.77528C179.647 4.40075 179.022 4.21348 178.182 4.21348C177.361 4.21348 176.726 4.33521 176.279 4.57865C175.849 4.8221 175.635 5.12172 175.635 5.47753C175.635 5.98315 175.933 6.35768 176.531 6.60112C177.128 6.84457 178.089 7.09738 179.414 7.35955C180.963 7.6779 182.232 8.01498 183.221 8.37079C184.229 8.70787 185.106 9.26966 185.853 10.0562C186.599 10.8427 186.982 11.9101 187 13.2584C187 15.5431 186.226 17.2378 184.677 18.3427C183.147 19.4476 181.094 20 178.518 20C175.513 20 173.171 19.4944 171.492 18.4831C169.831 17.4719 169 15.6835 169 13.118H174.851C174.851 14.0918 175.103 14.7472 175.607 15.0843C176.111 15.4026 176.894 15.5618 177.958 15.5618C178.742 15.5618 179.386 15.4775 179.89 15.309C180.412 15.1405 180.674 14.794 180.674 14.2697C180.674 13.8015 180.384 13.4551 179.806 13.2303C179.246 12.9869 178.322 12.7341 177.034 12.4719C175.467 12.1348 174.17 11.7884 173.143 11.4326C172.117 11.0581 171.221 10.4494 170.456 9.60674C169.691 8.76405 169.308 7.62172 169.308 6.17978C169.308 4.06367 170.12 2.50936 171.743 1.51685C173.386 0.505618 175.457 0 177.958 0Z" fill="#FB542F"/>
<path d="M160.75 5.28073V19.6628H154.564V5.28073H148.237V0.336914H167.049V5.28073H160.75Z" fill="#FB542F"/>
<path d="M146.402 6.26388C146.402 7.44365 146.085 8.51107 145.451 9.46613C144.816 10.4212 143.892 11.1234 142.679 11.5729L146.962 19.6628H140.02L136.604 12.6122H134.309V19.6628H128.122V0.336914H139.908C141.289 0.336914 142.465 0.608449 143.435 1.15152C144.424 1.67586 145.161 2.39684 145.647 3.31444C146.15 4.21332 146.402 5.19646 146.402 6.26388ZM140.104 6.51669C140.104 6.01107 139.936 5.58972 139.6 5.25264C139.264 4.91557 138.853 4.74703 138.368 4.74703H134.309V8.31444H138.368C138.853 8.31444 139.264 8.1459 139.6 7.80882C139.936 7.45302 140.104 7.02231 140.104 6.51669Z" fill="#FB542F"/>
<path d="M119.239 19.6628L118.427 16.938H111.68L110.868 19.6628H104.542L111.568 0.336914H118.763L125.789 19.6628H119.239ZM112.968 12.6122H117.139L115.123 5.73017H115.011L112.968 12.6122Z" fill="#FB542F"/>
<path d="M99.3146 0.336914C100.509 0.336914 101.573 0.617813 102.506 1.17961C103.439 1.72268 104.167 2.48111 104.69 3.45489C105.212 4.40995 105.473 5.48673 105.473 6.68523V7.0504C105.473 8.2489 105.212 9.33504 104.69 10.3088C104.167 11.2826 103.439 12.0504 102.506 12.6122C101.573 13.1553 100.509 13.4268 99.3146 13.4268H94.6956V19.6628H88.5088V0.336914H99.3146ZM94.6956 8.90433H97.243C97.8962 8.90433 98.3815 8.73579 98.6988 8.39871C99.0347 8.06163 99.2027 7.60283 99.2027 7.02231V6.79759C99.2027 6.19834 99.0347 5.73953 98.6988 5.42118C98.3815 5.0841 97.8962 4.91557 97.243 4.91557H94.6956V8.90433Z" fill="#FB542F"/>
<path d="M74.7629 0C78.0849 0 80.651 0.85206 82.4613 2.55618C84.2716 4.2603 85.1768 6.74157 85.1768 10C85.1768 13.2584 84.2716 15.7397 82.4613 17.4438C80.651 19.1479 78.0849 20 74.7629 20C71.4409 20 68.8747 19.1573 67.0644 17.4719C65.2728 15.7678 64.377 13.2772 64.377 10C64.377 6.72285 65.2728 4.24157 67.0644 2.55618C68.8747 0.85206 71.4409 0 74.7629 0ZM74.7629 4.63483C73.4378 4.63483 72.43 5.03745 71.7395 5.8427C71.049 6.64794 70.7037 7.73408 70.7037 9.10112V10.8989C70.7037 12.2659 71.049 13.3521 71.7395 14.1573C72.43 14.9625 73.4378 15.3652 74.7629 15.3652C76.0879 15.3652 77.0957 14.9625 77.7863 14.1573C78.4955 13.3521 78.8501 12.2659 78.8501 10.8989V9.10112C78.8501 7.73408 78.4955 6.64794 77.7863 5.8427C77.0957 5.03745 76.0879 4.63483 74.7629 4.63483Z" fill="white"/>
<path d="M57.0286 5.28073V19.6628H50.8419V5.28073H44.5151V0.336914H63.3274V5.28073H57.0286Z" fill="white"/>
<path d="M41.7997 11.8819C41.7997 14.5223 40.9692 16.5354 39.3082 17.9212C37.6472 19.307 35.2863 19.9998 32.2256 19.9998C29.1649 19.9998 26.7947 19.307 25.115 17.9212C23.454 16.5354 22.6235 14.5223 22.6235 11.8819V0.336914H28.8103V11.7976C28.8103 12.8837 29.0996 13.7545 29.6781 14.4099C30.2567 15.0467 31.0965 15.365 32.1976 15.365C33.2987 15.365 34.1386 15.0373 34.7171 14.3819C35.3143 13.7264 35.6129 12.865 35.6129 11.7976V0.336914H41.7997V11.8819Z" fill="white"/>
<path d="M14.6971 19.6628L13.8852 16.938H7.13857L6.32674 19.6628H0L7.0266 0.336914H14.2212L21.2478 19.6628H14.6971ZM8.42632 12.6122H12.5975L10.5819 5.73017H10.4699L8.42632 12.6122Z" fill="white"/>
</svg>
