<svg xmlns="http://www.w3.org/2000/svg" fill="none" viewBox="0 0 64 64" height="64" width="64">
<g clip-path="url(#clip0_5783_538)">
<rect fill="white" rx="32" height="64" width="64"></rect>
<path fill="#083C7E" d="M32 8C18.7826 8 8 18.7826 8 32C8 45.2174 18.7826 56 32 56C45.2174 56 56 45.2174 56 32C56 18.7826 45.2174 8 32 8ZM52.8 27.687H46.2609C45.287 27.687 44.8696 26.9217 44.8 26.713C44.7304 26.5043 44.4522 25.6696 45.1478 24.9739L49.8087 20.313C51.1304 22.5391 52.2435 25.0435 52.8 27.687ZM36.313 11.2C38.9565 11.7565 41.4609 12.8 43.687 14.2609L39.0261 18.9217C38.3304 19.6174 37.4957 19.3391 37.287 19.2696C37.0783 19.2 36.313 18.7826 36.313 17.8087V11.2ZM27.687 11.2V17.7391C27.687 18.713 26.9217 19.1304 26.713 19.2C26.5043 19.2696 25.6696 19.5478 24.9739 18.8522L20.313 14.1913C22.5391 12.8696 25.0435 11.7565 27.687 11.2ZM14.3304 20.313L18.9913 24.9739C19.687 25.6696 19.4087 26.5043 19.3391 26.713C19.2696 26.9217 18.8522 27.687 17.8783 27.687H11.3391C11.7565 25.0435 12.8696 22.5391 14.3304 20.313ZM11.2 36.2435H17.8087C18.7826 36.2435 19.2 37.0087 19.2696 37.2174C19.3391 37.4261 19.6174 38.2609 18.9217 38.9565L14.2609 43.6174C12.8696 41.4609 11.7565 38.9565 11.2 36.2435ZM27.687 52.8C25.0435 52.2435 22.5391 51.2 20.313 49.7391L24.9043 45.1478C25.6 44.4522 26.4348 44.7304 26.6435 44.8C26.8522 44.8696 27.6174 45.287 27.6174 46.2609V52.8H27.687ZM36.313 52.8V46.2609C36.313 45.287 37.0783 44.8696 37.287 44.8C37.4957 44.7304 38.3304 44.4522 39.0261 45.1478L43.687 49.8087C41.4609 51.1304 38.9565 52.2435 36.313 52.8ZM45.913 48L41.0435 43.1304C39.7913 41.8783 37.913 41.4609 36.2435 42.1565C34.5739 42.8522 33.5304 44.3826 33.5304 46.1913V53.1478C33.0435 53.2174 32.5565 53.2174 32.0696 53.2174C31.5826 53.2174 31.0957 53.1478 30.5391 53.1478V46.1913C30.5391 44.3826 29.4957 42.8522 27.8261 42.1565C26.1565 41.4609 24.3478 41.8087 23.0261 43.1304L18.1565 48C17.3913 47.3043 16.6957 46.6087 16 45.913L20.8696 40.9739C22.1217 39.7217 22.5391 37.8435 21.8435 36.1739C21.1478 34.5043 19.6174 33.4609 17.8087 33.4609H10.8522C10.8522 32.9739 10.7826 32.487 10.7826 32C10.7826 31.513 10.8522 31.0261 10.8522 30.5391H17.8087C19.6174 30.5391 21.1478 29.4957 21.8435 27.8261C22.5391 26.1565 22.1913 24.3478 20.8696 23.0261L16 18.1565C16.6957 17.3913 17.3913 16.6957 18.087 16L22.9565 20.8696C23.7913 21.7043 24.9043 22.1913 26.0174 22.1913C26.5739 22.1913 27.2 22.0522 27.7565 21.8435C29.4261 21.1478 30.4696 19.6174 30.4696 17.8087V10.8522C30.9565 10.7826 31.4435 10.7826 32 10.7826C32.487 10.7826 32.9739 10.8522 33.4609 10.8522V17.8087C33.4609 19.6174 34.5043 21.1478 36.1739 21.8435C36.7304 22.0522 37.287 22.1913 37.913 22.1913C39.0261 22.1913 40.1391 21.7739 40.9739 20.8696L45.8435 16C46.6087 16.6957 47.3043 17.3913 48 18.087L43.1304 22.9565C41.8783 24.2087 41.4609 26.087 42.1565 27.7565C42.8522 29.4261 44.3826 30.4696 46.1913 30.4696H53.1478C53.1478 30.9565 53.2174 31.4435 53.2174 31.9304C53.2174 32.4174 53.1478 32.9043 53.1478 33.3913H46.1913C44.3826 33.3913 42.8522 34.4348 42.1565 36.1043C41.4609 37.7739 41.8087 39.5826 43.1304 40.9043L48 45.8435C47.3043 46.6087 46.6087 47.3043 45.913 48ZM52.8 36.2435C52.2435 38.9565 51.2 41.3913 49.7391 43.6174L45.0783 38.9565C44.3826 38.2609 44.6609 37.4261 44.7304 37.2174C44.8 37.0087 45.2174 36.2435 46.1913 36.2435H52.8Z"></path>
<path fill="#083C7E" d="M32 0C14.3495 0 0 14.3495 0 32C0 49.6505 14.3495 64 32 64C49.6505 64 64 49.6505 64 32C64 14.3495 49.6505 0 32 0ZM32 61.3053C15.8316 61.3053 2.69474 48.1684 2.69474 32C2.69474 15.8316 15.8316 2.69474 32 2.69474C48.1684 2.69474 61.3053 15.8316 61.3053 32C61.3053 48.1684 48.1684 61.3053 32 61.3053Z"></path>
<path fill="#FB542F" d="M35.5523 38V33.6744C35.5523 33.1395 35.5698 32.593 35.6047 32.0349C35.6512 31.4651 35.6977 30.9884 35.7442 30.6047C35.7907 30.2209 35.8198 29.9767 35.8314 29.8721H35.7616L33.5465 38H30.5291L28.2965 29.8895H28.2267C28.2384 29.9942 28.2674 30.2384 28.314 30.6221C28.3721 30.9942 28.4244 31.4651 28.4709 32.0349C28.5174 32.593 28.5407 33.1395 28.5407 33.6744V38H25V26H30.4419L32.2558 32.9244H32.3256L34.1221 26H39.3721V38H35.5523Z"></path>
</g>
<defs>
<clipPath id="clip0_5783_538">
<rect fill="white" rx="32" height="64" width="64"></rect>
</clipPath>
</defs>
</svg>
