<svg xmlns="http://www.w3.org/2000/svg" fill="none" viewBox="0 0 41 40" height="40" width="41">
<path fill="#1D1D1F" d="M21.5766 40C18.2906 40 15.0837 38.5409 12.9103 35.8416L2.47178 22.8832C-0.759467 18.8738 -0.829381 13.2168 2.30156 9.12835L3.32595 7.79086C4.09197 6.79079 5.29571 6.27707 6.542 6.41386C7.79134 6.55065 8.85525 7.31362 9.38417 8.45657L10.2566 10.3321C10.9831 11.9006 10.7764 13.7214 9.70942 15.0802C9.69422 15.1015 9.67598 15.1197 9.65774 15.1379L8.67286 16.1623C7.52384 17.3569 7.43873 19.2294 8.47832 20.5183L16.4759 30.4461C17.5064 31.7258 19.2846 32.0541 20.7042 31.2273L22.0204 30.4582C22.0386 30.4491 22.0538 30.44 22.0721 30.4309C23.6284 29.6801 25.4523 29.8625 26.8293 30.9081L28.4768 32.1575C29.4799 32.9174 29.9997 34.1181 29.866 35.3705C29.7322 36.6229 28.9753 37.6868 27.8354 38.2218L26.3095 38.9361C24.7835 39.6504 23.1694 39.997 21.5705 39.997L21.5766 40ZM6.14684 7.91245C5.51457 7.91245 4.92182 8.20123 4.52969 8.71495L3.5053 10.0524C0.802962 13.5846 0.863758 18.4695 3.65424 21.9318L14.0927 34.8902C16.8832 38.3525 21.6404 39.4529 25.6681 37.5652L27.194 36.8508C27.8476 36.5438 28.2823 35.9328 28.3583 35.2155C28.4343 34.4981 28.1364 33.8111 27.5618 33.3734L25.9143 32.124C25.0024 31.431 23.7956 31.3063 22.7621 31.7927L21.4732 32.5435C19.4001 33.7533 16.8011 33.2731 15.2934 31.4036L7.29586 21.4758C5.77599 19.5912 5.89758 16.8523 7.57856 15.1106L8.53608 14.1166C9.2261 13.2107 9.35985 12.01 8.87957 10.9735L8.00716 9.09795C7.70319 8.44441 7.09524 8.00668 6.37786 7.92765C6.30186 7.91853 6.22587 7.91549 6.14988 7.91549L6.14684 7.91245Z"></path>
<path fill="#1D1D1F" d="M31.7537 31.4948C31.4984 31.4948 31.2461 31.3641 31.1032 31.13C30.8844 30.7714 30.9968 30.3032 31.3555 30.0844C35.9851 27.2604 38.7512 22.3391 38.7512 16.9223C38.7512 8.42922 31.8419 1.51683 23.3458 1.51683C20.0325 1.51683 16.8742 2.55339 14.2174 4.51098C13.88 4.76024 13.4028 4.68729 13.1535 4.34988C12.9043 4.01247 12.9772 3.53523 13.3146 3.28597C16.2389 1.1399 19.7072 0 23.3458 0C32.6778 0 40.2711 7.59329 40.2711 16.9253C40.2711 22.8771 37.2344 28.2818 32.1489 31.3823C32.0243 31.4583 31.8875 31.4948 31.7537 31.4948Z"></path>
<path fill="#FB542F" d="M21.6435 22.6527H16.4334C16.0139 22.6527 15.6491 22.3973 15.5062 22.0022C15.3634 21.607 15.4789 21.1784 15.8041 20.9109C16.6917 20.1844 19.1266 18.1478 19.7771 17.4274C20.7407 16.3574 20.8866 15.7676 20.8866 15.5123C20.8866 14.4241 19.999 13.5365 18.9107 13.5365C17.8225 13.5365 16.9349 14.4241 16.9349 15.5123V16.1932C16.9349 16.6127 16.5945 16.9532 16.175 16.9532C15.7555 16.9532 15.415 16.6127 15.415 16.1932V15.5123C15.415 13.5851 16.9835 12.0166 18.9107 12.0166C20.8379 12.0166 22.4065 13.5851 22.4065 15.5123C22.4065 16.3665 21.9171 17.327 20.9079 18.4457C20.3698 19.0415 18.9442 20.2695 17.9167 21.1328H21.6496C22.069 21.1328 22.4095 21.4733 22.4095 21.8927C22.4095 22.3122 22.069 22.6527 21.6496 22.6527H21.6435Z"></path>
<path fill="#FB542F" d="M29.7503 22.6524C29.3308 22.6524 28.9904 22.312 28.9904 21.8925V18.0928H24.5402C24.2362 18.0928 23.9596 17.9104 23.841 17.6277C23.7225 17.3481 23.7833 17.0228 23.9961 16.804L29.2062 11.4266C29.422 11.2047 29.7503 11.1348 30.0361 11.2503C30.3218 11.3658 30.5103 11.6455 30.5103 11.9556V21.8925C30.5103 22.312 30.1698 22.6524 29.7503 22.6524ZM26.3336 16.5729H28.9904V13.8311L26.3336 16.5729Z"></path>
</svg>
