<svg xmlns="http://www.w3.org/2000/svg" fill="none" viewBox="0 0 42 42" height="42" width="42">
<path stroke-miterlimit="10" stroke-width="1.3" stroke="#1D1D1F" d="M6.22217 23.6112C6.22217 33.2137 14.0085 41.0001 23.611 41.0001C33.2135 41.0001 40.9998 33.2137 40.9998 23.6112C40.9998 14.0087 33.2135 6.22241 23.611 6.22241"></path>
<path stroke-miterlimit="10" stroke-width="1.3" stroke="#FB542F" d="M20.6182 1.19637C22.2607 0.979114 23.6111 2.34315 23.6111 4V6.92065C23.6111 8.57751 22.2515 9.88659 20.6339 10.2452C15.4609 11.3919 11.3888 15.464 10.242 20.637C9.88345 22.2546 8.57436 23.6143 6.91751 23.6143H4C2.34315 23.6143 0.979121 22.2639 1.19628 20.6213C2.53098 10.5255 10.5247 2.5314 20.6182 1.19637Z"></path>
<path stroke-miterlimit="10" stroke-width="1.3" stroke="#1D1D1F" d="M30.096 30.0969C33.6779 26.515 33.6779 20.7076 30.096 17.1257C26.5141 13.5438 20.7067 13.5438 17.1248 17.1257C13.5429 20.7076 13.5429 26.515 17.1248 30.0969C20.7067 33.6788 26.5141 33.6788 30.096 30.0969Z"></path>
<path stroke-miterlimit="10" stroke-width="1.3" stroke="#1D1D1F" d="M25.8734 25.9431C27.1607 24.693 27.1908 22.6361 25.9408 21.3488C24.6907 20.0615 22.6337 20.0314 21.3465 21.2814C20.0592 22.5315 20.029 24.5885 21.2791 25.8758C22.5292 27.163 24.5861 27.1932 25.8734 25.9431Z"></path>
<path stroke-linejoin="round" stroke-linecap="round" stroke-width="1.3" stroke="#1D1D1F" d="M23.6113 18.0717V16.9248"></path>
<path stroke-linejoin="round" stroke-linecap="round" stroke-width="1.3" stroke="#1D1D1F" d="M19.693 19.693L18.8823 18.8823"></path>
<path stroke-linejoin="round" stroke-linecap="round" stroke-width="1.3" stroke="#1D1D1F" d="M18.0717 23.6113H16.9248"></path>
<path stroke-linejoin="round" stroke-linecap="round" stroke-width="1.3" stroke="#1D1D1F" d="M19.693 27.5293L18.8823 28.34"></path>
<path stroke-linejoin="round" stroke-linecap="round" stroke-width="1.3" stroke="#1D1D1F" d="M23.6113 29.1538V30.3007"></path>
<path stroke-linejoin="round" stroke-linecap="round" stroke-width="1.3" stroke="#1D1D1F" d="M27.5293 27.5293L28.34 28.34"></path>
<path stroke-linejoin="round" stroke-linecap="round" stroke-width="1.3" stroke="#1D1D1F" d="M29.1538 23.6113H30.3007"></path>
<path stroke-linejoin="round" stroke-linecap="round" stroke-width="1.3" stroke="#1D1D1F" d="M27.5293 19.693L28.34 18.8823"></path>
<path stroke-miterlimit="10" stroke-width="1.3" stroke="#FB542F" d="M6.26318 18.9639L7.36923 19.2592"></path>
<path stroke-miterlimit="10" stroke-width="1.3" stroke="#FB542F" d="M8.05713 14.6309L9.05006 15.2059"></path>
<path stroke-miterlimit="10" stroke-width="1.3" stroke="#FB542F" d="M10.9106 10.9104L11.7213 11.7211"></path>
<path stroke-miterlimit="10" stroke-width="1.3" stroke="#FB542F" d="M14.6309 8.05737L15.2059 9.0503"></path>
<path stroke-miterlimit="10" stroke-width="1.3" stroke="#FB542F" d="M18.9639 6.26318L19.2592 7.36923"></path>
</svg>
