<svg xmlns="http://www.w3.org/2000/svg" fill="none" viewBox="0 0 43 42" height="42" width="43">
<path stroke-linejoin="round" stroke-linecap="round" stroke-width="1.3" stroke="#1D1D1F" d="M14.9493 30.8966C19.4534 30.8966 23.1046 25.9587 23.1046 19.8675C23.1046 13.7763 19.4534 8.83838 14.9493 8.83838C10.4452 8.83838 6.79395 13.7763 6.79395 19.8675C6.79395 25.9587 10.4452 30.8966 14.9493 30.8966Z"></path>
<path stroke-linejoin="round" stroke-linecap="round" stroke-width="1.3" stroke="#1D1D1F" d="M14.9495 23.1854C16.305 23.1854 17.4039 21.6999 17.4039 19.8674C17.4039 18.0349 16.305 16.5493 14.9495 16.5493C13.594 16.5493 12.4951 18.0349 12.4951 19.8674C12.4951 21.6999 13.594 23.1854 14.9495 23.1854Z"></path>
<path stroke-linejoin="round" stroke-linecap="round" stroke-width="1.3" stroke="#1D1D1F" d="M28.9021 19.8676C28.9021 9.44738 22.6544 1 14.9495 1C7.24466 1 1 9.44738 1 19.8676C1 30.2878 7.24466 38.7352 14.9495 38.7352"></path>
<path stroke-linejoin="round" stroke-linecap="round" stroke-width="1.3" stroke="#1D1D1F" d="M28.7935 22.2195C28.8649 21.449 28.8991 20.6661 28.8991 19.8677"></path>
<path stroke-linejoin="round" stroke-linecap="round" stroke-width="1.3" stroke="#1D1D1F" d="M14.9497 38.7383C18.2305 38.7383 21.2472 37.2067 23.6301 34.6436"></path>
<path stroke-linejoin="round" stroke-linecap="round" stroke-width="1.3" stroke="#1D1D1F" d="M14.9497 1H25.4351C33.14 1 39.3847 9.44738 39.3847 19.8676C39.3847 20.6629 39.3505 21.4489 39.2821 22.2194"></path>
<path stroke-linejoin="round" stroke-linecap="round" stroke-width="1.3" stroke="#1D1D1F" d="M14.9497 16.5496V10.6995"></path>
<path stroke-linejoin="round" stroke-linecap="round" stroke-width="1.3" stroke="#1D1D1F" d="M14.9497 29.0386V23.1885"></path>
<path stroke-linejoin="round" stroke-linecap="round" stroke-width="1.3" stroke="#1D1D1F" d="M12.4952 19.8677H8.45947"></path>
<path stroke-linejoin="round" stroke-linecap="round" stroke-width="1.3" stroke="#1D1D1F" d="M21.4426 19.8677H17.4038"></path>
<path stroke-linejoin="round" stroke-linecap="round" stroke-width="1.3" stroke="#FB542F" d="M40.0773 24.3726H27.0474C26.0539 24.3726 25.2485 25.1779 25.2485 26.1714V39.2013C25.2485 40.1948 26.0539 41.0001 27.0474 41.0001H40.0773C41.0707 41.0001 41.8761 40.1948 41.8761 39.2013V26.1714C41.8761 25.1779 41.0707 24.3726 40.0773 24.3726Z"></path>
<path stroke-linejoin="round" stroke-linecap="round" stroke-width="1.3" stroke="#FB542F" d="M29.8745 32.4655L32 36L37.2532 29.4644"></path>
</svg>
