<svg xmlns="http://www.w3.org/2000/svg" fill="none" viewBox="0 0 44 40" height="40" width="44">
<path stroke-linejoin="round" stroke-linecap="round" stroke-width="1.5" stroke="#1D1D1F" d="M21.5387 23.3333H23.3336C25.3079 23.3333 26.9233 21.8333 26.9233 19.9999V3.33325H9.5C6.80769 3.33325 5.72588 4.71656 4.50537 6.7499"></path>
<path stroke-linejoin="round" stroke-linecap="round" stroke-width="1.5" stroke="#1D1D1F" d="M3.58984 28.3333C3.58984 31.0999 4.52051 33.3333 7.5 33.3333H10.7693C10.7693 31.4999 12.3847 29.9999 14.3591 29.9999C16.3334 29.9999 17.9488 31.4999 17.9488 33.3333H25.1283C25.1283 31.4999 26.7437 29.9999 28.7181 29.9999C30.6924 29.9999 32.3078 31.4999 32.3078 33.3333H35.1027C38.0822 33.3333 39.4873 32.0999 39.4873 29.3333V23.3333H34.1027C33.1155 23.3333 32.3078 22.5833 32.3078 21.6666V16.6666C32.3078 15.7499 33.1155 14.9999 34.1027 14.9999H36.418L33.3489 10.0166C32.7027 8.98327 31.5181 8.33325 30.2258 8.33325H26.9232V19.9999C26.9232 21.8333 25.3078 23.3333 23.3334 23.3333H15.3845"></path>
<path stroke-linejoin="round" stroke-linecap="round" stroke-width="1.5" stroke="#1D1D1F" d="M14.3588 36.6667C16.3413 36.6667 17.9485 35.1743 17.9485 33.3333C17.9485 31.4924 16.3413 30 14.3588 30C12.3762 30 10.769 31.4924 10.769 33.3333C10.769 35.1743 12.3762 36.6667 14.3588 36.6667Z"></path>
<path stroke-linejoin="round" stroke-linecap="round" stroke-width="1.5" stroke="#1D1D1F" d="M28.7182 36.6667C30.7007 36.6667 32.3079 35.1743 32.3079 33.3333C32.3079 31.4924 30.7007 30 28.7182 30C26.7356 30 25.1284 31.4924 25.1284 33.3333C25.1284 35.1743 26.7356 36.6667 28.7182 36.6667Z"></path>
<path stroke-linejoin="round" stroke-linecap="round" stroke-width="1.5" stroke="#1D1D1F" d="M39.4871 20V23.3333H34.1025C33.1153 23.3333 32.3076 22.5833 32.3076 21.6667V16.6667C32.3076 15.75 33.1153 15 34.1025 15H36.4178L39.4871 20Z"></path>
<path stroke-linejoin="round" stroke-linecap="round" stroke-width="1.5" stroke="#FB542F" d="M3.58984 13.3335H14.3591"></path>
<path stroke-linejoin="round" stroke-linecap="round" stroke-width="1.5" stroke="#FB542F" d="M3.58984 18.3335H10.7693"></path>
<path stroke-linejoin="round" stroke-linecap="round" stroke-width="1.5" stroke="#FB542F" d="M3.58984 23.3335H7.17959"></path>
</svg>
